<svg width="227" height="69" viewBox="0 0 227 69" fill="none" xmlns="http://www.w3.org/2000/svg">
<g clip-path="url(#clip0_784_6891)">
<path d="M-0.00138191 37.069C0.0757852 37.016 0.201182 36.9785 0.220474 36.9099C1.54839 32.6362 4.71867 30.883 9.12685 30.5337C13.8083 30.1624 16.2584 26.0104 14.4353 21.824C14.2263 21.3436 13.9884 20.8726 13.7794 20.3922C12.0463 16.3961 13.5318 12.1037 17.3934 9.92319C21.1296 7.81129 25.6824 8.613 28.4122 11.8635C29.0617 12.6371 29.634 13.4794 30.351 14.1906C32.9715 16.7861 36.7977 16.7486 39.3699 14.1127C40.0066 13.4607 40.5081 12.6871 41.0965 11.9852C43.5659 9.04973 47.3342 8.02654 50.8936 9.31489C54.3596 10.5689 56.4657 13.7102 56.3499 17.463C56.2438 20.9163 53.8291 23.9796 50.4016 25.0028C46.8262 26.0697 43.0257 24.7938 40.7686 21.7648C40.3956 21.2625 40.058 20.7322 39.6432 20.2674C36.8298 17.1323 32.232 17.2103 29.753 20.595C27.5923 23.546 24.8593 25.1681 21.0974 25.5425C16.1555 26.0322 13.8983 30.0782 15.9497 34.4861C16.9047 36.5387 17.4673 38.61 16.94 40.8342C16.1073 44.353 13.1653 46.7737 9.45159 47.0857C5.52893 47.4163 2.24933 45.554 0.680261 42.135C0.471267 41.6765 0.506635 41.0931 -0.0078125 40.7781V37.0721L-0.00138191 37.069Z" fill="#05ABD7"/>
<path d="M97.0231 0C97.9459 0.377458 97.7015 1.13237 97.605 1.79995C96.9009 6.68507 96.171 11.5671 95.4572 16.4522C94.6052 22.2763 93.7628 28.1004 92.9171 33.9213C92.8689 34.2489 92.8271 34.5795 92.766 34.904C92.5731 35.9272 91.7821 35.9771 90.9622 35.8866C89.9687 35.7774 90.2098 35.0506 90.2967 34.4641C91.8529 23.6613 93.4187 12.8585 94.991 2.05886C95.11 1.24468 95.0971 0.340024 96.1421 0H97.0263L97.0231 0Z" fill="#0C2047"/>
<path d="M167.206 0C167.868 0.817306 167.273 1.65645 167.164 2.43632C165.926 11.0804 164.633 19.7152 163.312 28.3499C163.183 29.1891 163.399 30.3807 161.839 30.362C160.9 30.3495 160.482 30.0844 160.637 29.108C161.097 26.2006 161.502 23.287 161.939 20.3765C162.884 14.0876 163.836 7.79872 164.794 1.51295C164.871 1.00448 165.022 0.505357 165.141 0L167.206 0Z" fill="#0C2047"/>
<path d="M21.6726 52.4201C24.9072 52.3546 27.3187 53.7615 29.0871 56.307C30.4407 58.2567 32.1448 59.6106 34.7299 59.6511C37.2603 59.6917 39.0095 58.4876 40.3374 56.5535C42.2119 53.8239 44.7488 52.2891 48.2181 52.3921C51.9575 52.5044 55.1342 54.9781 56.1213 58.5593C57.0987 62.0968 55.5972 65.8028 52.4108 67.7212C49.1762 69.6678 45.0864 69.3683 42.273 66.9788C41.527 66.3456 40.9386 65.5906 40.3599 64.8201C37.1703 60.5714 32.4342 60.5558 29.2928 64.8139C27.4119 67.3656 25.0261 69.0002 21.6887 69.0002C17.0072 69.0002 13.1971 65.2413 13.2228 60.6962C13.2485 56.02 16.9043 52.442 21.6726 52.4201Z" fill="#2D689B"/>
<path d="M108.37 33.6189C110.482 33.6189 112.595 33.5877 114.707 33.6314C115.681 33.6532 116.093 33.3257 116.212 32.3524C116.614 29.1019 117.128 25.8639 117.562 22.6165C117.974 19.5188 116.366 16.2122 113.871 14.9207C111.109 13.492 108.183 13.9037 105.418 16.1342C104.93 16.5272 104.505 16.9952 104.058 17.4319C103.878 17.6097 103.672 17.7719 103.418 17.669C103.061 17.5223 103.177 17.2042 103.222 16.939C103.611 14.6555 106.692 12.319 109.814 11.9385C115.36 11.2615 119.791 15.0236 120.038 20.6574C120.212 24.5786 119.234 28.3907 118.723 32.2463C118.582 33.3132 118.662 33.6719 119.874 33.6189C123.405 33.4723 126.948 33.856 130.472 33.3787C130.716 33.3444 130.964 33.3475 131.205 33.3039C134.388 32.7111 134.88 32.1465 134.42 29.105C133.7 24.3447 134.443 19.9337 137.427 15.9907C139.864 12.7714 143.208 11.4861 147.214 12.0071C150.481 12.4313 152.709 14.3529 153.619 17.3851C155.249 22.8192 154.445 27.9446 150.834 32.4772C148.285 35.6778 144.857 36.9786 140.693 36.2611C139.246 36.0116 138.021 35.3034 137.031 34.274C136.462 33.6844 135.999 33.5752 135.272 34.0369C133.115 35.4064 130.687 35.9242 128.134 35.9242C119.537 35.9242 110.936 35.918 102.338 35.9117C102.19 35.9117 102.042 35.9117 101.894 35.9117C101.078 35.918 100.454 35.7745 100.457 34.7544C100.457 33.7531 101.029 33.5815 101.878 33.5877C104.039 33.6064 106.203 33.594 108.363 33.594V33.622L108.37 33.6189ZM151.674 22.1142C151.625 21.3562 151.654 20.5857 151.516 19.8464C151.043 17.3414 150.018 15.111 147.224 14.4247C144.581 13.7758 142.089 14.3249 140.311 16.4773C136.687 20.8633 135.902 25.7796 137.774 31.0703C138.484 33.0792 140.188 34.1711 142.391 34.1929C144.815 34.2179 146.741 33.204 148.285 31.4571C150.657 28.7712 151.574 25.5862 151.677 22.1174" fill="#0C2047"/>
<path d="M34.2668 47.1043C29.5467 47.1137 25.7559 43.5731 25.6884 39.0997C25.6208 34.67 29.5756 30.805 34.1896 30.7925C38.8421 30.78 42.7937 34.5827 42.7326 39.0217C42.6716 43.5855 38.9933 47.0981 34.2636 47.1043" fill="#F58532"/>
<path d="M119.174 46.4896C120.441 46.0653 121.158 45.1731 122.091 44.596C123.814 43.5261 125.602 42.7555 127.711 42.7306C130.277 42.6994 132.081 43.8224 133.032 46.0435C133.582 47.3318 133.991 47.0854 134.807 46.3305C136.415 44.8518 138.161 43.5479 140.379 42.9957C144.775 41.9039 149.498 43.9753 148.601 49.9522C147.877 54.7812 147.228 59.6195 146.533 64.4516C146.424 65.2221 146.27 66.0176 145.228 66.0644C144.376 66.1049 143.804 65.8647 143.971 64.8291C144.733 60.0562 145.466 55.2772 146.193 50.4981C146.292 49.843 146.324 49.1723 146.315 48.5079C146.27 46.1121 144.167 44.4369 141.736 44.8705C138.495 45.4477 135.99 47.2226 133.843 49.5342C133.566 49.8305 133.399 50.2891 133.341 50.6946C132.708 55.1524 132.106 59.6133 131.489 64.071C131.444 64.3986 131.341 64.7199 131.283 65.0443C131.119 65.9583 130.412 65.9708 129.705 65.899C128.843 65.8148 128.952 65.2502 129.045 64.6294C129.775 59.7536 130.489 54.8779 131.187 49.9959C131.769 45.9187 129.158 43.8879 125.058 45.2012C122.551 46.0029 120.625 47.5939 118.875 49.4312C118.522 49.8025 118.4 50.2735 118.332 50.7352C117.702 55.0494 117.097 59.3699 116.48 63.6873C116.419 64.1084 116.339 64.5265 116.252 64.9445C116.068 65.846 115.503 66.2796 114.564 66.0956C113.512 65.8897 113.888 65.1316 113.982 64.5015C114.917 58.0754 115.85 51.6492 116.795 45.2231C116.869 44.7083 116.985 44.1967 117.142 43.7007C117.319 43.1486 117.802 43.0519 118.329 43.0862C118.94 43.1268 119.181 43.4824 119.181 44.0376C119.181 44.7957 119.181 45.5506 119.181 46.4864" fill="#A8A7A7"/>
<path d="M219.644 42.7807C223.207 42.7432 223.165 42.737 223.567 39.3648C223.846 37.0159 224.29 34.6825 224.618 32.3397C224.75 31.3914 225.088 31.0701 226.168 31.2666C227.284 31.4694 226.988 31.9872 226.888 32.6766C225.853 39.708 224.846 46.7424 223.84 53.7769C223.326 57.3892 222.814 60.9985 222.332 64.614C222.219 65.45 221.779 65.9148 220.956 66.0427C217.744 66.5356 214.506 66.8101 211.316 66.0178C205.828 64.6545 201.134 58.3688 204.613 50.9101C207.079 45.6257 211.554 43.286 217.287 42.79C218.065 42.7214 218.856 42.7807 219.644 42.7807ZM215.963 64.7544C219.744 64.77 219.834 64.6951 220.339 61.2449C221.078 56.182 221.805 51.116 222.583 46.0593C222.756 44.9269 222.155 44.5962 221.21 44.5214C217.811 44.2531 214.557 44.696 211.558 46.393C207.259 48.8263 204.899 54.5661 206.429 58.9552C207.686 62.5582 211.259 64.7325 215.963 64.7544Z" fill="#A8A7A7"/>
<path d="M168.982 42.7903C172.336 42.7372 172.368 42.7435 172.921 39.5335C173.326 37.197 173.68 34.8543 173.966 32.5022C174.117 31.2606 174.699 31.0111 175.863 31.3105C176.471 31.4665 176.471 31.6786 176.394 32.1934C175.207 40.067 174.043 47.9437 172.889 55.8204C172.455 58.7745 172.027 61.7287 171.645 64.6891C171.555 65.3972 171.317 65.8464 170.551 65.9712C167.243 66.5171 163.918 66.8634 160.632 65.9681C154.012 64.1619 150.99 57.352 153.989 50.9727C156.443 45.7538 160.819 43.2083 166.626 42.7965C167.407 42.7404 168.198 42.7903 168.982 42.7903ZM168.789 44.4654C162.343 44.4779 158.038 47.1856 155.957 52.5449C153.961 57.6796 156.671 63.0202 161.983 64.3459C163.995 64.8482 166.028 64.9012 168.098 64.5113C169.056 64.3303 169.445 63.8874 169.561 63.0389C170.262 57.9292 170.976 52.8194 171.674 47.7097C171.969 45.5448 171.009 44.4634 168.793 44.4654" fill="#A8A7A7"/>
<path d="M101.592 54.1482C99.38 54.1482 97.1646 54.2231 94.9589 54.1233C93.4799 54.0547 93.123 54.6318 93.1616 55.9575C93.3063 61.0018 96.9364 64.664 101.692 64.4145C103.862 64.2991 105.74 63.3507 107.569 62.3057C107.833 62.156 108.077 61.7192 108.441 62.0499C108.685 62.2714 108.73 62.6239 108.675 62.9795C108.54 63.8561 108.013 64.48 107.257 64.873C102.624 67.2906 96.8849 67.3593 93.0233 63.0014C90.808 60.4995 90.4125 57.3987 90.6119 54.2761C90.8337 50.8041 92.197 47.7158 94.8754 45.3045C97.7048 42.759 101.087 41.9697 104.695 43.2519C108.415 44.5745 109.846 47.6098 109.994 51.2409C110.126 54.5101 110.299 54.1451 107.052 54.1545C105.235 54.1607 103.415 54.1545 101.595 54.1545V54.1451L101.592 54.1482ZM100.64 52.1798C102.605 52.1798 104.569 52.1798 106.534 52.1798C107.103 52.1798 107.556 52.1642 107.669 51.4124C108.077 48.6766 106.016 45.6383 103.222 45.03C99.0231 44.116 95.0265 46.858 93.8304 51.297C93.5925 52.1736 94.2709 52.183 94.8979 52.183C96.8142 52.1798 98.7273 52.183 100.644 52.1767" fill="#A8A7A7"/>
<path d="M194.417 63.8622C193.376 64.4143 192.456 64.954 191.492 65.4032C184.823 68.5196 178.454 64.6982 178.399 57.5608C178.344 50.3672 183.678 44.3529 191.202 43.0427C193.549 42.634 195.897 42.7432 198.247 42.8306C199.793 42.8867 200.121 43.2985 199.903 44.8395C199.311 49.0602 198.668 53.2777 198.048 57.4953C197.71 59.7912 197.347 62.0841 197.073 64.3894C196.961 65.3502 196.72 66.0895 195.559 66.0708C194.135 66.0458 194.765 64.9415 194.585 64.2646C194.562 64.1772 194.514 64.0961 194.417 63.8653M187.276 64.4923C189.546 64.6483 191.398 63.5159 193.263 62.3149C194.7 61.3884 195.363 60.1375 195.514 58.5247C195.617 57.4422 195.823 56.3691 195.98 55.2898C196.43 52.1953 196.877 49.0976 197.324 46.0031C197.45 45.1296 197.273 44.5744 196.157 44.4839C187.813 43.807 181.08 49.4283 180.852 57.5171C180.73 61.8501 183.379 64.6919 187.276 64.4954" fill="#A8A7A7"/>
<path d="M65.7075 17.8745C65.3634 16.0683 66.0579 14.8892 67.4727 13.9159C70.5079 11.8321 73.7264 11.1489 77.1636 12.7336C80.6232 14.3277 82.0379 17.2662 82.2791 20.8037C82.4913 23.9138 81.6778 26.9335 81.3081 29.9937C81.1184 31.5472 80.7968 33.0883 80.6264 34.6418C80.5235 35.5901 80.1088 35.9488 79.1217 35.9426C74.0608 35.9114 68.9999 35.9114 63.9423 35.9301C63.1127 35.9332 62.6915 35.8022 62.7333 34.8414C62.7719 33.9243 63.0548 33.578 64.0194 33.5874C68.1446 33.6248 72.2731 33.5562 76.3983 33.6498C77.8066 33.681 78.395 33.3316 78.5429 31.8966C78.858 28.8302 79.4014 25.7855 79.813 22.7284C80.231 19.6121 78.5879 16.268 76.0286 14.9235C73.437 13.5634 70.1092 14.0937 67.4309 16.3116C66.8521 16.792 66.3151 17.3224 65.7075 17.8776" fill="#0C2047"/>
<path d="M155.712 37.6618C155.689 37.0317 156.091 36.6979 156.374 36.6792C158.033 36.5638 158.098 35.2754 158.545 34.1867C159.287 32.3805 161.564 31.4852 163.284 32.2495C163.721 32.4429 164.268 32.6426 163.962 33.2758C163.679 33.8654 163.258 33.934 162.657 33.5846C161.512 32.9171 160.593 33.3164 159.908 34.3177C159.544 34.848 159.352 35.5187 159.609 36.0802C159.872 36.6542 160.573 36.3142 161.078 36.3485C161.808 36.4015 162.548 36.3703 163.281 36.3766C163.67 36.3766 164.126 36.3017 164.104 36.8882C164.084 37.3748 163.856 37.6712 163.284 37.6681C160.763 37.6556 158.242 37.6618 155.712 37.6618Z" fill="#0C2047"/>
</g>
<defs>
<clipPath id="clip0_784_6891">
<rect width="227" height="69" fill="white"/>
</clipPath>
</defs>
</svg>
