<svg width="46" height="46" viewBox="0 0 46 46" fill="none" xmlns="http://www.w3.org/2000/svg">
<path d="M46 33.9651V12.0349C46 5.3882 40.6118 0 33.9651 0L12.0349 0C5.38821 0 7.62939e-06 5.3882 7.62939e-06 12.0349V33.9651C7.62939e-06 40.6118 5.38821 46 12.0349 46H33.9651C40.6118 46 46 40.6118 46 33.9651Z" fill="url(#paint0_linear_787_6989)"/>
<path d="M13.3383 18.7207H17.7904V33.0367H13.3383V18.7207ZM15.5722 11.6099C17.0038 11.6099 18.1523 12.7583 18.1523 14.1899C18.1523 15.6215 17.0038 16.7699 15.5722 16.7699C14.1406 16.7699 12.9922 15.6058 12.9922 14.1899C12.9922 12.774 14.1406 11.6099 15.5722 11.6099Z" fill="white"/>
<path d="M20.5939 18.7207H24.8572V20.6715H24.9201C25.5179 19.5388 26.9653 18.3589 29.1363 18.3589C33.6356 18.3589 34.4694 21.3165 34.4694 25.1708V33.021H30.0172V26.0675C30.0172 24.3999 29.9858 22.2761 27.7047 22.2761C25.4236 22.2761 25.0302 24.0853 25.0302 25.9574V33.0367H20.5781V18.7207H20.5939Z" fill="white"/>
<defs>
<linearGradient id="paint0_linear_787_6989" x1="42.4603" y1="3.53967" x2="3.53968" y2="42.4761" gradientUnits="userSpaceOnUse">
<stop stop-color="#007AB5"/>
<stop offset="1" stop-color="#0046E5"/>
</linearGradient>
</defs>
</svg>
