<svg width="92" height="92" viewBox="0 0 92 92" fill="none" xmlns="http://www.w3.org/2000/svg">
<path d="M84.3332 38.3333H53.6666V7.66667C53.6666 3.42424 50.2422 0 45.9998 0C41.7574 0 38.3331 3.42424 38.3331 7.66667V38.3333H7.66639C3.42396 38.3333 0 41.7576 0 46C0 50.2424 3.42396 53.6667 7.66639 53.6667H38.3331V84.3333C38.3331 88.5758 41.7574 92 45.9998 92C50.2422 92 53.6666 88.5758 53.6666 84.3333V53.6667H84.3332C88.5757 53.6667 92 50.2424 92 46C92 41.7576 88.5757 38.3333 84.3332 38.3333Z" fill="#1E49A0"/>
</svg>
